<?xml version="1.0" encoding="UTF-8"?>
<svg id="Isolation_Mode" data-name="Isolation Mode" xmlns="http://www.w3.org/2000/svg" viewBox="0 0 1500 2002.89">
  <g>
    <polyline points="545.92 1120.67 719.24 1120.67 719.24 1179.83 605.93 1179.83 605.93 1237.23 719.24 1237.23 719.24 1295.29 605.93 1295.29 605.93 1378.82 719.24 1378.82 719.24 1438.18 545.92 1438.18 545.92 1120.67" style="fill: #231f20;"/>
    <polyline points="145.92 752.05 186 752.05 186 829.76 255.28 829.76 255.28 752.05 295.22 752.05 295.22 958.04 255.28 958.04 255.28 867.71 186 867.71 186 958.04 145.92 958.04 145.92 752.05" style="fill: #231f20;"/>
    <path d="M501.93,778.51c-21.12-21.1-46.38-31.65-75.74-31.65-19.39,0-37.49,4.83-54.28,14.48-16.81,9.68-30.01,22.76-39.61,39.29-9.61,16.52-14.4,34.63-14.4,54.33,0,29.41,10.29,54.8,30.91,76.18,20.62,21.38,46.51,32.07,77.66,32.07s55.04-10.41,75.88-31.24c20.86-20.82,31.29-46.26,31.29-76.32s-10.57-56.06-31.71-77.16ZM474.35,905.1c-13.18,13.43-29.15,20.17-47.89,20.17-16.57,0-31.26-5.19-44.07-15.55-16.48-13.25-24.72-31.29-24.72-54.06,0-20.45,6.56-37.3,19.63-50.55,13.1-13.26,29.25-19.89,48.45-19.89s35.17,6.8,48.45,20.37c13.27,13.59,19.91,30.18,19.91,49.79s-6.6,36.27-19.77,49.71Z" style="fill: #231f20;"/>
    <path d="M425.76,785.23c-19.2,0-35.36,6.63-48.45,19.89-13.07,13.25-19.63,30.1-19.63,50.55,0,22.77,8.24,40.8,24.72,54.06,12.82,10.36,27.5,15.55,44.07,15.55,18.74,0,34.7-6.74,47.89-20.17,13.17-13.44,19.77-30.01,19.77-49.71s-6.64-36.2-19.91-49.79c-13.28-13.57-29.44-20.37-48.45-20.37Z" style="fill: #84bd41;"/>
    <path d="M555.02,752.05h39.66v133.21c0,11.47.99,19.59,3.02,24.34,2.03,4.76,5.36,8.56,10.01,11.41,4.67,2.84,10.28,4.27,16.87,4.27,6.96,0,12.95-1.59,18-4.75,5.03-3.18,8.5-7.21,10.43-12.11,1.93-4.91,2.89-14.25,2.89-28.07v-128.3h39.65v122.82c0,20.71-1.17,35.1-3.53,43.13-2.36,8.02-6.84,15.77-13.47,23.24-6.65,7.47-14.28,13-22.94,16.61-8.65,3.58-18.72,5.38-30.18,5.38-15.05,0-28.16-3.44-39.3-10.3-11.15-6.87-19.11-15.45-23.92-25.76-4.79-10.31-7.19-27.74-7.19-52.3v-122.82" style="fill: #231f20;"/>
    <path d="M835.9,780.04l-29.25,25.63c-10.27-14.19-20.74-21.28-31.4-21.28-5.19,0-9.43,1.37-12.72,4.12-3.3,2.77-4.95,5.87-4.95,9.32s1.17,6.72,3.54,9.81c3.2,4.09,12.86,12.92,28.97,26.47,15.07,12.52,24.2,20.4,27.42,23.67,8.01,8.03,13.69,15.72,17.04,23.03,3.34,7.33,5.01,15.34,5.01,24.01,0,16.9-5.89,30.87-17.64,41.88-11.77,11.01-27.13,16.53-46.05,16.53-14.78,0-27.68-3.6-38.65-10.79-10.97-7.19-20.37-18.48-28.18-33.9l33.2-19.87c9.99,18.2,21.48,27.3,34.48,27.3,6.79,0,12.49-1.97,17.11-5.88,4.62-3.91,6.92-8.44,6.92-13.57,0-4.68-1.74-9.36-5.23-14.02-3.5-4.66-11.18-11.8-23.05-21.43-22.61-18.29-37.22-32.42-43.81-42.34-6.6-9.95-9.9-19.87-9.9-29.77,0-14.29,5.48-26.55,16.46-36.76,10.97-10.23,24.51-15.34,40.62-15.34,10.35,0,20.21,2.38,29.59,7.14,9.37,4.76,19.51,13.44,30.44,26.04" style="fill: #231f20;"/>
    <path d="M145.58,956.05h33.03c18.42,0,30.91.75,37.44,2.25,9.85,2.25,17.85,7.05,24.02,14.42,6.17,7.37,9.25,16.45,9.25,27.23,0,8.99-2.13,16.88-6.38,23.69-4.24,6.82-10.31,11.95-18.2,15.44-7.89,3.48-18.8,5.26-32.71,5.33l59.65,76.59h-20.51l-59.66-76.59h-9.37v76.59h-16.57v-164.96M162.15,972.2v56.06l28.57.23c11.07,0,19.25-1.05,24.58-3.14,5.3-2.1,9.44-5.43,12.42-10.04,2.96-4.61,4.45-9.74,4.45-15.43s-1.5-10.56-4.51-15.08c-3.02-4.52-6.96-7.75-11.86-9.69-4.89-1.95-13.02-2.92-24.4-2.92h-29.25Z" style="fill: #231f20;"/>
    <polyline points="273.4 956.05 368.46 956.05 368.46 972.2 289.98 972.2 289.98 1023.89 367.78 1023.89 367.78 1040.04 289.98 1040.04 289.98 1104.87 367.78 1104.87 367.78 1121.01 273.4 1121.01 273.4 956.05" style="fill: #231f20;"/>
    <path d="M368.42,1090.29l14.09-8.43c9.93,18.17,21.4,27.26,34.39,27.26,5.56,0,10.79-1.29,15.68-3.87,4.89-2.58,8.61-6.04,11.17-10.37,2.54-4.33,3.83-8.94,3.83-13.79,0-5.54-1.88-10.95-5.63-16.25-5.19-7.33-14.66-16.15-28.41-26.47-13.83-10.4-22.43-17.91-25.83-22.55-5.86-7.77-8.79-16.17-8.79-25.22,0-7.18,1.73-13.72,5.2-19.64,3.45-5.9,8.33-10.55,14.59-13.95,6.28-3.4,13.1-5.11,20.48-5.11,7.81,0,15.12,1.93,21.93,5.78,6.8,3.85,14,10.93,21.59,21.26l-13.53,10.19c-6.23-8.23-11.54-13.65-15.95-16.25-4.39-2.62-9.18-3.93-14.39-3.93-6.68,0-12.14,2.01-16.39,6.06-4.25,4.03-6.38,9-6.38,14.9,0,3.6.76,7.07,2.27,10.43,1.51,3.37,4.23,7.03,8.23,11,2.19,2.09,9.32,7.58,21.43,16.48,14.36,10.55,24.2,19.93,29.54,28.14,5.33,8.23,8.01,16.49,8.01,24.8,0,11.96-4.57,22.35-13.7,31.18-9.13,8.82-20.24,13.23-33.32,13.23-10.07,0-19.2-2.68-27.39-8.02-8.2-5.36-15.76-14.31-22.67-26.85" style="fill: #231f20;"/>
    <polyline points="472.57 972.2 472.57 956.05 563.45 956.05 563.45 972.2 526.47 972.2 526.47 1121.01 509.56 1121.01 509.56 972.2 472.57 972.2" style="fill: #231f20;"/>
    <path d="M624.86,956.05l77.35,164.96h-17.9l-26.09-54.26h-71.45l-25.85,54.26h-18.48l78.36-164.96h4.06M622.77,991.1l-28.42,59.71h56.71l-28.28-59.71Z" style="fill: #231f20;"/>
    <path d="M716.95,956.05h16.58v99.58c0,11.81.22,19.19.68,22.09.82,6.52,2.74,11.95,5.74,16.33,3.01,4.37,7.63,8.03,13.87,10.99,6.24,2.96,12.52,4.42,18.84,4.42,5.48,0,10.75-1.16,15.78-3.47,5.05-2.31,9.26-5.53,12.64-9.65,3.38-4.11,5.86-9.09,7.44-14.91,1.13-4.19,1.7-12.8,1.7-25.8v-99.58h16.57v99.58c0,14.73-1.45,26.64-4.35,35.72-2.88,9.08-8.67,16.99-17.35,23.72-8.68,6.73-19.19,10.09-31.53,10.09-13.38,0-24.84-3.18-34.4-9.54-9.54-6.35-15.94-14.76-19.16-25.24-2.03-6.42-3.04-18.01-3.04-34.76v-99.58" style="fill: #231f20;"/>
    <polygon points="251.27 1323.35 269.08 1259.68 251.15 1322.84 251.27 1323.35" style="fill: #231f20;"/>
    <polygon points="461.18 1120.67 461.12 1120.95 462.2 1120.95 415.65 1323.9 358.07 1120.67 307.96 1120.67 307.88 1120.95 308.44 1120.95 269.08 1259.68 251.27 1323.35 251.15 1322.84 250.85 1323.9 204.32 1120.67 145.92 1120.67 217.81 1438.18 275.23 1438.18 332.63 1232.91 391.13 1438.18 449.09 1438.18 520.64 1120.67 461.18 1120.67" style="fill: #231f20;"/>
    <polygon points="251.15 1322.84 269.08 1259.68 308.44 1120.95 307.88 1120.95 204.3 1120.57 204.32 1120.67 250.85 1323.9 251.15 1322.84" style="fill: #02a9e0;"/>
    <polygon points="462.2 1120.95 461.12 1120.95 358.04 1120.57 358.07 1120.67 415.65 1323.9 462.2 1120.95" style="fill: #02a9e0;"/>
    <polygon points="813.55 1236.93 813.55 1179.71 926.48 1179.71 926.48 1179.83 927.01 1179.83 927.01 1120.67 753.69 1120.67 753.69 1438.18 927.01 1438.18 927.01 1378.82 813.7 1378.82 813.55 1378.82 813.55 1295.29 813.7 1295.29 927.01 1295.29 927.01 1237.23 813.7 1237.23 813.7 1236.93 813.55 1236.93" style="fill: #231f20;"/>
    <polygon points="813.55 1179.71 813.55 1236.93 813.7 1236.93 926.48 1236.93 926.48 1179.83 926.48 1179.71 813.55 1179.71" style="fill: #84bd41;"/>
    <polygon points="813.55 1295.29 813.55 1378.82 813.7 1378.82 927.01 1378.82 927.01 1295.29 813.7 1295.29 813.55 1295.29" style="fill: #84bd41;"/>
    <polyline points="961.68 1120.67 1022.78 1120.67 1022.78 1230.14 1108.97 1120.67 1181.54 1120.67 1070.66 1262.39 1192.31 1438.18 1120.66 1438.18 1022.78 1297.11 1022.78 1438.18 961.68 1438.18 961.68 1120.67" style="fill: #231f20;"/>
    <path d="M1379.9,1163.85l-44.75,39.49c-15.73-21.88-31.73-32.82-48.01-32.82-7.93,0-14.42,2.13-19.46,6.38-5.04,4.23-7.57,9.03-7.57,14.35s1.8,10.36,5.39,15.1c4.91,6.35,19.69,19.94,44.33,40.8,23.06,19.28,37.04,31.44,41.96,36.48,12.25,12.37,20.93,24.21,26.05,35.5,5.12,11.31,7.68,23.65,7.68,37.02,0,26.05-9,47.57-27,64.56-18.02,16.97-41.49,25.45-70.45,25.45-22.62,0-42.32-5.54-59.1-16.61-16.78-11.08-31.15-28.49-43.1-52.24l50.79-30.64c15.29,28.05,32.87,42.09,52.76,42.09,10.37,0,19.09-3.02,26.17-9.06,7.05-6.05,10.58-13.02,10.58-20.94,0-7.19-2.67-14.39-8-21.59-5.35-7.18-17.09-18.21-35.25-33.02-34.59-28.21-56.93-49.96-67.03-65.3-10.09-15.32-15.13-30.61-15.13-45.86,0-22.02,8.4-40.9,25.18-56.67,16.78-15.74,37.49-23.63,62.14-23.63,15.83,0,30.93,3.68,45.27,11.01,14.33,7.34,29.84,20.72,46.55,40.16" style="fill: #231f20;"/>
    <polyline points="842.34 752.05 957.06 752.05 957.06 790.69 919.26 790.69 919.26 958.04 879.18 958.04 879.18 790.69 842.34 790.69 842.34 752.05" style="fill: #231f20;"/>
    <path d="M1143.45,778.51c-21.14-21.1-46.38-31.65-75.75-31.65-19.4,0-37.48,4.83-54.29,14.48-16.79,9.68-29.99,22.76-39.6,39.29-9.6,16.52-14.39,34.63-14.39,54.33,0,29.41,10.29,54.8,30.91,76.18,20.61,21.38,46.51,32.07,77.66,32.07s55.04-10.41,75.89-31.24c20.83-20.82,31.27-46.26,31.27-76.32s-10.57-56.06-31.69-77.16ZM1115.86,905.1c-13.17,13.43-29.15,20.17-47.88,20.17-16.57,0-31.26-5.19-44.07-15.55-16.48-13.25-24.72-31.29-24.72-54.06,0-20.45,6.54-37.3,19.62-50.55,13.1-13.26,29.24-19.89,48.46-19.89s35.17,6.8,48.43,20.37c13.29,13.59,19.93,30.18,19.93,49.79s-6.6,36.27-19.78,49.71Z" style="fill: #231f20;"/>
    <path d="M1067.28,785.23c-19.22,0-35.36,6.63-48.46,19.89-13.08,13.25-19.62,30.1-19.62,50.55,0,22.77,8.24,40.8,24.72,54.06,12.82,10.36,27.5,15.55,44.07,15.55,18.73,0,34.7-6.74,47.88-20.17,13.18-13.44,19.78-30.01,19.78-49.71s-6.64-36.2-19.93-49.79c-13.26-13.57-29.42-20.37-48.43-20.37Z" style="fill: #02a9e0;"/>
    <polyline points="1198.09 752.05 1235.98 752.05 1324.8 887.6 1324.8 752.05 1364.31 752.05 1364.31 958.04 1326.31 958.04 1237.59 822.9 1237.59 958.04 1198.09 958.04 1198.09 752.05" style="fill: #231f20;"/>
    <path d="M856.94,956.05h33.05c18.41,0,30.89.75,37.43,2.25,9.85,2.25,17.85,7.05,24.01,14.42,6.18,7.37,9.25,16.45,9.25,27.23,0,8.99-2.12,16.88-6.37,23.69-4.24,6.82-10.32,11.95-18.22,15.44-7.89,3.48-18.8,5.26-32.7,5.33l59.66,76.59h-20.53l-59.64-76.59h-9.37v76.59h-16.59v-164.96M873.53,972.2v56.06l28.56.23c11.08,0,19.26-1.05,24.57-3.14,5.31-2.1,9.46-5.43,12.42-10.04,2.98-4.61,4.47-9.74,4.47-15.43s-1.51-10.56-4.53-15.08c-3-4.52-6.95-7.75-11.84-9.69-4.91-1.95-13.03-2.92-24.4-2.92h-29.25Z" style="fill: #231f20;"/>
    <path d="M1052.43,956.05l77.36,164.96h-17.9l-26.09-54.26h-71.46l-25.84,54.26h-18.5l78.38-164.96h4.05M1050.35,991.1l-28.42,59.71h56.71l-28.28-59.71Z" style="fill: #231f20;"/>
    <polyline points="1144.08 1121.01 1144.08 956.05 1147.68 956.05 1258.08 1082.5 1258.08 956.05 1274.42 956.05 1274.42 1121.01 1270.72 1121.01 1161.21 996.11 1161.21 1121.01 1144.08 1121.01" style="fill: #231f20;"/>
    <polyline points="1286.79 972.2 1286.79 956.05 1377.67 956.05 1377.67 972.2 1340.7 972.2 1340.7 1121.01 1323.77 1121.01 1323.77 972.2 1286.79 972.2" style="fill: #231f20;"/>
    <g>
      <path d="M161.38,1643.74h18.35c3.56,0,6.48.28,9.22,1.46,4.38,1.92,7.58,6.94,7.58,13.7s-2.83,10.96-9.31,13.42c7.3,1.83,11.41,7.03,11.41,15.34,0,11.41-7.21,16.98-19.82,16.98h-17.44v-60.9ZM188.86,1659.53c0-6.12-2.83-9.68-10.5-9.68h-9.59v19.72h8.67c8.31,0,11.41-3.47,11.41-10.04ZM190.96,1687.38c0-7.31-4.47-11.69-12.6-11.69h-9.59v22.83h9.77c7.85,0,12.42-3.74,12.42-11.14Z" style="fill: #231f20;"/>
      <path d="M240.9,1643.74h33.14v6.12h-25.75v20.18h20.27v6.12h-20.27v22.37h26.48v6.12h-33.88v-60.9Z" style="fill: #231f20;"/>
      <path d="M320.33,1652.78v51.86h-6.39v-60.9h9.4l23.28,48.12v-48.12h6.39v60.9h-7.31l-25.38-51.86Z" style="fill: #231f20;"/>
      <path d="M396.86,1643.74h33.14v6.12h-25.75v20.18h20.27v6.12h-20.27v22.37h26.48v6.12h-33.88v-60.9Z" style="fill: #231f20;"/>
      <path d="M470.18,1643.74h31.95v6.12h-24.56v20.18h20.18v6.12h-20.18v28.49h-7.4v-60.9Z" style="fill: #231f20;"/>
      <path d="M538.84,1643.74h7.4v60.9h-7.4v-60.9Z" style="fill: #231f20;"/>
      <path d="M596.64,1649.94h-14.52v-6.21h36.52v6.21h-14.61v54.7h-7.4v-54.7Z" style="fill: #231f20;"/>
      <path d="M652.1,1643.74h7.4v60.9h-7.4v-60.9Z" style="fill: #231f20;"/>
      <path d="M705.74,1652.78v51.86h-6.39v-60.9h9.4l23.28,48.12v-48.12h6.39v60.9h-7.31l-25.38-51.86Z" style="fill: #231f20;"/>
      <path d="M811.35,1697.15c-3.29,6.48-8.03,8.77-14.61,8.77-14.25,0-20.91-13.51-20.91-31.32,0-20.55,7.58-32.14,22.28-32.14,10.14,0,15.89,4.93,18.81,16.71l-6.66,2.56c-2.92-10.69-6.58-13.06-12.33-13.06-9.4,0-14.25,8.31-14.25,25.38s4.84,25.66,14.25,25.66c8.03,0,12.33-6.03,12.33-18.08v-1h-12.42v-6.12h19.63v30.95h-5.11l-1.01-8.31Z" style="fill: #231f20;"/>
    </g>
    <g>
      <g>
        <path d="M161.49,1797.84h28.55v5.74h-21.71v17.62h20.06v5.66h-20.06v23.99h-6.84v-53.01Z" style="fill: #231f20;"/>
        <path d="M251.72,1823.8c0,18.25-11.09,27.92-24.62,27.92s-23.83-10.85-23.83-26.9c0-16.83,10.46-27.84,24.62-27.84s23.83,11.09,23.83,26.82ZM210.58,1824.66c0,11.33,6.13,21.47,16.91,21.47s16.99-9.99,16.99-22.02c0-10.54-5.51-21.55-16.91-21.55s-16.99,10.46-16.99,22.1Z" style="fill: #231f20;"/>
        <path d="M274.06,1797.84v31.38c0,11.88,5.27,16.91,12.35,16.91,7.87,0,12.9-5.19,12.9-16.91v-31.38h6.92v30.91c0,16.28-8.58,22.96-20.06,22.96-10.85,0-19.04-6.21-19.04-22.65v-31.23h6.92Z" style="fill: #231f20;"/>
        <path d="M324.73,1850.85v-53.01h7.47l16.99,26.82c3.93,6.22,7,11.8,9.52,17.23l.15-.08c-.63-7.08-.79-13.53-.79-21.79v-22.18h6.45v53.01h-6.92l-16.83-26.9c-3.7-5.9-7.23-11.95-9.91-17.69l-.24.08c.39,6.68.55,13.06.55,21.87v22.65h-6.45Z" style="fill: #231f20;"/>
        <path d="M383.1,1798.55c4.16-.63,9.12-1.11,14.55-1.11,9.84,0,16.83,2.28,21.48,6.61,4.71,4.33,7.47,10.46,7.47,19.04s-2.67,15.73-7.63,20.61c-4.96,4.96-13.14,7.63-23.44,7.63-4.87,0-8.96-.24-12.42-.63v-52.14ZM389.94,1845.43c1.73.31,4.25.39,6.93.39,14.63,0,22.57-8.18,22.57-22.5.08-12.5-7-20.45-21.47-20.45-3.54,0-6.22.31-8.03.71v41.84Z" style="fill: #231f20;"/>
        <path d="M469.55,1826h-20.61v19.11h22.97v5.74h-29.81v-53.01h28.63v5.74h-21.79v16.75h20.61v5.66Z" style="fill: #231f20;"/>
        <path d="M487.42,1798.55c4.16-.63,9.12-1.11,14.55-1.11,9.84,0,16.83,2.28,21.48,6.61,4.71,4.33,7.47,10.46,7.47,19.04s-2.67,15.73-7.63,20.61c-4.96,4.96-13.14,7.63-23.44,7.63-4.87,0-8.96-.24-12.42-.63v-52.14ZM494.26,1845.43c1.73.31,4.25.39,6.93.39,14.63,0,22.57-8.18,22.57-22.5.08-12.5-7-20.45-21.47-20.45-3.54,0-6.22.31-8.03.71v41.84Z" style="fill: #231f20;"/>
        <path d="M569.7,1798.55c2.99-.63,7.71-1.11,12.5-1.11,6.84,0,11.25,1.18,14.55,3.86,2.75,2.05,4.4,5.19,4.4,9.36,0,5.12-3.38,9.6-8.97,11.64v.16c5.03,1.26,10.94,5.42,10.94,13.29,0,4.56-1.81,8.02-4.48,10.62-3.7,3.38-9.68,4.96-18.33,4.96-4.72,0-8.34-.31-10.62-.63v-52.14ZM576.54,1820.26h6.22c7.23,0,11.48-3.78,11.48-8.89,0-6.21-4.72-8.65-11.64-8.65-3.15,0-4.95.24-6.06.47v17.07ZM576.54,1845.66c1.34.24,3.31.32,5.74.32,7.08,0,13.61-2.6,13.61-10.3,0-7.24-6.21-10.23-13.68-10.23h-5.67v20.21Z" style="fill: #231f20;"/>
        <path d="M629.57,1850.85v-22.5l-16.75-30.52h7.78l7.47,14.63c2.05,4.01,3.62,7.23,5.27,10.93h.16c1.5-3.46,3.3-6.92,5.35-10.93l7.63-14.63h7.78l-17.78,30.44v22.57h-6.92Z" style="fill: #231f20;"/>
        <path d="M727.27,1849.12c-2.51,1.26-7.55,2.52-14,2.52-14.95,0-26.19-9.44-26.19-26.82s11.25-27.84,27.68-27.84c6.61,0,10.78,1.41,12.59,2.36l-1.66,5.58c-2.59-1.26-6.29-2.21-10.69-2.21-12.43,0-20.69,7.94-20.69,21.87,0,12.98,7.47,21.31,20.37,21.31,4.17,0,8.42-.86,11.17-2.2l1.41,5.42Z" style="fill: #231f20;"/>
        <path d="M742.46,1797.84h6.84v47.27h22.66v5.74h-29.49v-53.01Z" style="fill: #231f20;"/>
        <path d="M813.65,1826h-20.61v19.11h22.97v5.74h-29.81v-53.01h28.63v5.74h-21.79v16.75h20.61v5.66Z" style="fill: #231f20;"/>
        <path d="M843.86,1850.85l-17.31-53.01h7.39l8.26,26.11c2.28,7.16,4.25,13.61,5.67,19.82h.15c1.5-6.13,3.7-12.82,6.06-19.74l8.97-26.19h7.32l-18.96,53.01h-7.55Z" style="fill: #231f20;"/>
        <path d="M910.17,1826h-20.61v19.11h22.97v5.74h-29.81v-53.01h28.63v5.74h-21.79v16.75h20.61v5.66Z" style="fill: #231f20;"/>
        <path d="M928.04,1798.55c3.46-.71,8.41-1.11,13.13-1.11,7.32,0,12.04,1.34,15.34,4.33,2.67,2.36,4.17,5.97,4.17,10.07,0,7-4.41,11.64-9.99,13.53v.24c4.09,1.41,6.53,5.19,7.78,10.69,1.73,7.39,2.99,12.5,4.09,14.55h-7.08c-.86-1.5-2.05-6.06-3.54-12.66-1.57-7.31-4.41-10.07-10.62-10.3h-6.45v22.97h-6.84v-52.3ZM934.88,1822.7h7c7.31,0,11.95-4.01,11.95-10.07,0-6.84-4.96-9.83-12.19-9.91-3.31,0-5.66.31-6.77.63v19.35Z" style="fill: #231f20;"/>
        <path d="M976.97,1797.84h6.84v47.27h22.66v5.74h-29.49v-53.01Z" style="fill: #231f20;"/>
        <path d="M1048.16,1826h-20.61v19.11h22.97v5.74h-29.81v-53.01h28.63v5.74h-21.79v16.75h20.61v5.66Z" style="fill: #231f20;"/>
        <path d="M1078.06,1850.85v-22.5l-16.75-30.52h7.78l7.47,14.63c2.05,4.01,3.62,7.23,5.27,10.93h.16c1.5-3.46,3.3-6.92,5.35-10.93l7.63-14.63h7.78l-17.78,30.44v22.57h-6.92Z" style="fill: #231f20;"/>
        <path d="M1137.76,1842.52c3.07,1.89,7.55,3.46,12.27,3.46,7,0,11.09-3.7,11.09-9.05,0-4.95-2.83-7.78-9.99-10.54-8.65-3.07-14-7.55-14-15.02,0-8.26,6.84-14.39,17.14-14.39,5.43,0,9.36,1.25,11.72,2.59l-1.89,5.59c-1.73-.95-5.26-2.52-10.07-2.52-7.23,0-9.99,4.32-9.99,7.94,0,4.96,3.22,7.39,10.54,10.23,8.96,3.46,13.53,7.78,13.53,15.57,0,8.18-6.06,15.26-18.56,15.26-5.12,0-10.7-1.5-13.53-3.38l1.73-5.74Z" style="fill: #231f20;"/>
        <path d="M1194.17,1803.66h-16.12v-5.82h39.25v5.82h-16.2v47.19h-6.92v-47.19Z" style="fill: #231f20;"/>
        <path d="M1272.99,1823.8c0,18.25-11.09,27.92-24.62,27.92s-23.83-10.85-23.83-26.9c0-16.83,10.46-27.84,24.62-27.84s23.83,11.09,23.83,26.82ZM1231.85,1824.66c0,11.33,6.13,21.47,16.91,21.47s16.99-9.99,16.99-22.02c0-10.54-5.51-21.55-16.91-21.55s-16.99,10.46-16.99,22.1Z" style="fill: #231f20;"/>
        <path d="M1288.5,1850.85v-53.01h7.47l16.99,26.82c3.93,6.22,7,11.8,9.52,17.23l.15-.08c-.63-7.08-.79-13.53-.79-21.79v-22.18h6.45v53.01h-6.92l-16.83-26.9c-3.7-5.9-7.23-11.95-9.91-17.69l-.24.08c.39,6.68.55,13.06.55,21.87v22.65h-6.45Z" style="fill: #231f20;"/>
        <path d="M1374.32,1826h-20.61v19.11h22.97v5.74h-29.81v-53.01h28.63v5.74h-21.79v16.75h20.61v5.66Z" style="fill: #231f20;"/>
      </g>
      <rect x="161.49" y="1776.92" width="1213.94" height="2.82" style="fill: #84bd41;"/>
      <rect x="161.49" y="1870.79" width="1213.94" height="2.82" style="fill: #84bd41;"/>
    </g>
    <g>
      <g>
        <path d="M1020.35,1747.34c-3.44,0-6.74-.56-9.87-1.74-3.17-1.16-6.03-2.84-8.59-5-2.44-2.06-4.28-4.42-5.54-7.08-1.26-2.67-1.92-5.54-1.92-8.58s.66-5.86,1.98-8.56c1.29-2.7,3.16-5.1,5.58-7.18,2.46-2.11,5.28-3.73,8.43-4.84,3.15-1.12,6.47-1.68,9.93-1.68s6.93.56,10.14,1.68c3.21,1.11,6.06,2.73,8.55,4.84,2.49,2.12,4.41,4.52,5.73,7.22,1.32,2.7,1.98,5.54,1.98,8.52s-.66,5.82-1.95,8.52c-1.29,2.67-3.18,5.06-5.65,7.14-2.54,2.16-5.42,3.84-8.66,5-3.26,1.18-6.63,1.74-10.14,1.74M1020.56,1742c5.31,0,9.78-1.64,13.45-4.92,3.68-3.28,5.52-7.28,5.52-12.05s-1.84-8.85-5.5-12.09c-3.64-3.27-8.14-4.9-13.47-4.9s-9.75,1.63-13.4,4.9c-3.66,3.24-5.48,7.29-5.48,12.09s1.82,8.77,5.48,12.05c3.66,3.28,8.14,4.92,13.4,4.92Z" style="fill: #231f20;"/>
        <path d="M1020.35,1751.52c-3.9,0-7.74-.68-11.32-2.01-3.6-1.32-6.9-3.25-9.83-5.73-2.88-2.43-5.1-5.28-6.63-8.48-1.52-3.22-2.3-6.7-2.3-10.36s.8-7.12,2.38-10.38c1.54-3.2,3.78-6.08,6.62-8.52,2.84-2.44,6.12-4.32,9.74-5.62,7.24-2.56,15.62-2.51,22.83,0,3.68,1.28,7.02,3.16,9.88,5.6,2.94,2.46,5.2,5.36,6.79,8.57,1.59,3.25,2.41,6.75,2.41,10.35s-.8,7.08-2.38,10.32c-1.56,3.21-3.81,6.08-6.72,8.52-2.88,2.48-6.24,4.42-9.93,5.74-3.69,1.34-7.57,2-11.55,2M1020.56,1712.21c-4.26,0-7.74,1.26-10.62,3.83-2.76,2.46-4.09,5.41-4.09,9s1.33,6.48,4.09,8.94c2.89,2.59,6.37,3.87,10.62,3.87s7.77-1.29,10.68-3.87c2.77-2.47,4.11-5.4,4.11-8.94s-1.32-6.54-4.08-8.99c-2.9-2.58-6.4-3.84-10.71-3.84Z" style="fill: #231f20;"/>
        <path d="M1082.43,1747.34c-3.45,0-6.74-.56-9.9-1.74-3.15-1.16-6-2.84-8.58-5-2.43-2.06-4.26-4.42-5.54-7.08-1.27-2.67-1.9-5.54-1.9-8.58s.66-5.86,1.96-8.56c1.31-2.7,3.17-5.1,5.6-7.18,2.46-2.11,5.26-3.73,8.4-4.84,3.16-1.12,6.48-1.68,9.96-1.68s6.92.56,10.14,1.68c3.18,1.11,6.04,2.73,8.54,4.84,2.5,2.12,4.4,4.52,5.72,7.22,1.34,2.7,1.98,5.54,1.98,8.52s-.64,5.82-1.94,8.52c-1.31,2.67-3.2,5.06-5.66,7.14-2.52,2.16-5.42,3.84-8.64,5-3.26,1.18-6.63,1.74-10.14,1.74M1082.64,1742c5.29,0,9.77-1.64,13.44-4.92,3.69-3.28,5.52-7.28,5.52-12.05s-1.83-8.85-5.49-12.09c-3.66-3.27-8.16-4.9-13.46-4.9s-9.75,1.63-13.41,4.9c-3.66,3.24-5.5,7.29-5.5,12.09s1.84,8.77,5.5,12.05c3.66,3.28,8.13,4.92,13.41,4.92Z" style="fill: #231f20;"/>
        <path d="M1082.43,1751.52c-3.93,0-7.74-.68-11.34-2.01-3.58-1.32-6.9-3.25-9.84-5.73-2.86-2.43-5.08-5.28-6.6-8.48-1.53-3.22-2.31-6.7-2.31-10.36s.81-7.12,2.39-10.38c1.54-3.2,3.76-6.08,6.62-8.52,2.84-2.44,6.12-4.32,9.74-5.62,7.23-2.56,15.61-2.51,22.82,0,3.69,1.28,7.01,3.16,9.89,5.6,2.92,2.46,5.2,5.36,6.76,8.57,1.6,3.25,2.43,6.75,2.43,10.35s-.81,7.08-2.37,10.32c-1.58,3.21-3.84,6.08-6.72,8.52-2.88,2.48-6.24,4.42-9.94,5.74-3.68,1.34-7.56,2-11.54,2M1082.64,1712.21c-4.27,0-7.75,1.26-10.65,3.83-2.74,2.46-4.08,5.41-4.08,9s1.34,6.48,4.1,8.94c2.89,2.59,6.36,3.87,10.63,3.87s7.75-1.29,10.67-3.87c2.77-2.47,4.12-5.4,4.12-8.94s-1.34-6.54-4.1-8.99c-2.89-2.58-6.38-3.84-10.69-3.84Z" style="fill: #231f20;"/>
        <path d="M1158.28,1745.54v-7.55c-1.6,3.07-3.82,5.4-6.7,6.99-2.85,1.59-6.22,2.36-10.08,2.36-6.92,0-12.5-2.03-16.7-6.1-4.23-4.06-6.33-9.44-6.33-16.11s2.08-12,6.24-16.16c4.18-4.19,9.56-6.27,16.13-6.27,4.08,0,7.62.78,10.56,2.3,2.96,1.54,5.25,3.8,6.88,6.79v-38.42h6.78v72.17h-6.78M1125.91,1725.33c0,5.34,1.41,9.46,4.2,12.34,2.82,2.88,6.82,4.34,12.04,4.34s9-1.58,11.9-4.74c2.9-3.14,4.35-7.49,4.35-13.02,0-5.06-1.44-9.04-4.29-11.94-2.86-2.9-6.82-4.36-11.84-4.36s-9.02,1.54-11.96,4.64c-2.93,3.09-4.4,7.34-4.4,12.73Z" style="fill: #231f20;"/>
        <path d="M1141.51,1751.52c-8.01,0-14.59-2.44-19.59-7.26-5.06-4.88-7.6-11.31-7.6-19.13s2.5-14.15,7.46-19.1c4.95-4.98,11.36-7.5,19.07-7.5,4.76,0,8.94.93,12.48,2.79.27.12.54.26.78.42v-32.54h15.11v80.5h-15.11v-1.36c-.15.09-.32.2-.48.28-3.48,1.92-7.56,2.9-12.12,2.9M1142.27,1712.13c-3.88,0-6.8,1.09-8.94,3.32-2.18,2.32-3.25,5.54-3.25,9.88s.99,7.34,3.03,9.43c2.01,2.07,4.98,3.09,9.04,3.09s6.74-1.12,8.84-3.39c2.18-2.39,3.24-5.71,3.24-10.21,0-3.95-1.02-6.9-3.09-9.02-2.07-2.08-4.98-3.1-8.87-3.1Z" style="fill: #231f20;"/>
      </g>
      <path d="M1264.04,1625.15s9.2-13.41,26.35-7.95c-.26,0,23.34,7.47,12.42,38.78.25.48-9.54,17.39-17.93,26.57-.46.27-10.16,9.21-20.83-1.48-.24,0-12.42,13.18-24.59-1.49-.51,0-14.42-20.63-15.91-30.06-1.48-9.46-3.48-25.75,15.16-33.63-.25-.18,16.4-4.9,25.34,9.26" style="fill: #84bd41;"/>
      <path d="M1251.96,1689.48c-5.43,0-10.41-2.7-14.8-8.02h.02c-1.38-1.4-3.6-4.59-7.89-11.88-3.49-5.94-7.83-14.15-8.7-19.61-1.31-8.34-4.38-27.81,16.94-36.83v.02c1.26-.62,3.54-1.16,7.6-1.16,4.67,0,12.89,1.18,19.11,8.4,3.22-3.1,9.31-7.5,18.11-7.5,2.92,0,5.92.48,8.92,1.44l2.54.81-.05.31c6.61,3.41,21.24,14.29,11.97,41.22-.42,1.53-1.96,4.38-6.14,10.9-2.56,4.04-7.6,11.6-12.51,16.97l-.58.52c-4.54,3.49-8.66,4.2-11.36,4.2-3.94,0-7.7-1.43-11.19-4.28-3.9,2.97-7.92,4.48-12,4.48M1240.83,1676.61l.9,1.06c6.12,7.36,13.02,7.64,20.01,1.43.46-.39,1.14-1.02,2.3-1.02h1.24l.86.87c5.34,5.36,11.2,5.7,16.67,1.42.02,0,.03-.02.04-.02,7.22-7.98,15.58-21.97,16.96-24.85l.18-.51c8.76-25.1-5.88-33.1-10.57-34.96l-.11-.02c-2.39-.76-4.73-1.13-6.97-1.13-10.28,0-15.79,7.89-15.85,7.97l-2.56,3.73-2.42-3.83c-4.59-7.26-11.46-8.77-16.39-8.77-2.5,0-4.42.39-5.08.57l-.2.09c-14.97,6.33-15.27,18.35-13.38,30.4,1.19,7.46,11.39,23.46,14.36,27.57Z" style="fill: #231f20;"/>
      <path d="M1256.59,1600.8s11.06,7.3,6.65,23.15" style="fill: #84bd41;"/>
      <path d="M1266.11,1624.76l-5.76-1.59c3.75-13.45-5.05-19.63-5.43-19.89l3.3-4.96c.54.34,12.82,8.69,7.89,26.44" style="fill: #231f20;"/>
      <path d="M906.84,1662.17v-72.17h5.62v37.25c1.71-2.64,3.84-4.62,6.34-5.94,2.51-1.32,5.4-1.98,8.66-1.98,4.82,0,8.58,1.3,11.26,3.92,2.69,2.6,4.04,6.24,4.04,10.9v28.03h-6v-25.47c0-4.14-.9-7.2-2.67-9.2-1.77-2-4.5-3-8.22-3-4.5,0-7.83,1.3-9.95,3.88-2.12,2.6-3.18,6.66-3.18,12.24v21.55h-5.9" style="fill: #231f20;"/>
      <path d="M972.37,1663.98c-3.03,0-5.94-.57-8.72-1.74-2.78-1.17-5.3-2.85-7.57-5.01-2.15-2.04-3.77-4.41-4.89-7.08-1.12-2.67-1.68-5.52-1.68-8.58s.58-5.86,1.72-8.56c1.16-2.7,2.8-5.09,4.94-7.18,2.18-2.11,4.66-3.72,7.44-4.84,2.78-1.12,5.7-1.68,8.76-1.68s6.12.56,8.96,1.68c2.83,1.12,5.35,2.73,7.56,4.84,2.2,2.12,3.88,4.52,5.05,7.22,1.17,2.7,1.75,5.55,1.75,8.52s-.58,5.82-1.72,8.5c-1.16,2.69-2.82,5.08-4.98,7.16-2.25,2.16-4.8,3.84-7.66,5.01-2.86,1.17-5.84,1.74-8.96,1.74M972.58,1658.63c4.65,0,8.63-1.64,11.85-4.92,3.26-3.28,4.88-7.28,4.88-12.04s-1.61-8.86-4.85-12.1c-3.21-3.27-7.19-4.9-11.88-4.9s-8.63,1.63-11.85,4.9c-3.22,3.24-4.84,7.29-4.84,12.1s1.62,8.76,4.84,12.04c3.22,3.28,7.18,4.92,11.85,4.92Z" style="fill: #231f20;"/>
      <path d="M1008.86,1620.87v20.62c0,6.27.91,10.71,2.74,13.28,1.86,2.56,4.96,3.86,9.34,3.86s7.46-1.31,9.34-3.92c1.9-2.61,2.83-7.02,2.83-13.23v-20.62h5.85v23.56c0,6.43-1.52,11.29-4.56,14.61-3.03,3.3-7.5,4.95-13.37,4.95s-10.4-1.65-13.46-4.95c-3.07-3.32-4.6-8.18-4.6-14.61v-23.56h5.9" style="fill: #231f20;"/>
      <path d="M1044.92,1654.81l5.6-3.12c.93,2.31,2.28,4.03,4.04,5.19,1.75,1.17,3.91,1.76,6.46,1.76s4.5-.62,5.96-1.85c1.46-1.23,2.2-2.85,2.2-4.91,0-3.16-2.9-5.86-8.68-8.06-.6-.22-1.08-.4-1.43-.56-4.49-1.7-7.62-3.46-9.41-5.28-1.78-1.82-2.68-4.06-2.68-6.74,0-3.5,1.28-6.38,3.84-8.64,2.56-2.24,5.86-3.37,9.92-3.37,3.46,0,6.4.73,8.83,2.19,2.43,1.46,4.2,3.54,5.31,6.24l-5.42,2.94c-.66-1.96-1.78-3.45-3.34-4.48-1.58-1.02-3.48-1.54-5.76-1.54-2.04,0-3.74.59-5.06,1.76-1.32,1.16-1.99,2.61-1.99,4.35s.66,3.12,1.97,4.23c1.3,1.12,4.03,2.34,8.14,3.69,4.68,1.59,7.82,3.3,9.44,5.17,1.6,1.86,2.41,4.44,2.41,7.73,0,3.79-1.38,6.81-4.17,9.09-2.78,2.26-6.52,3.39-11.22,3.39-3.6,0-6.72-.81-9.32-2.4-2.62-1.59-4.5-3.85-5.64-6.78" style="fill: #231f20;"/>
      <polyline points="1083.59 1625.75 1075.77 1625.75 1075.77 1620.87 1083.59 1620.87 1083.59 1603.91 1089.39 1603.91 1089.39 1620.87 1097.92 1620.87 1097.92 1625.75 1089.39 1625.75 1089.39 1662.17 1083.59 1662.17 1083.59 1625.75" style="fill: #231f20;"/>
      <path d="M1121.09,1663.98c-3.03,0-5.94-.57-8.73-1.74-2.78-1.17-5.3-2.85-7.56-5.01-2.16-2.04-3.78-4.41-4.9-7.08-1.12-2.67-1.67-5.52-1.67-8.58s.57-5.86,1.73-8.56c1.14-2.7,2.8-5.09,4.93-7.18,2.17-2.11,4.65-3.72,7.44-4.84,2.77-1.12,5.7-1.68,8.76-1.68s6.12.56,8.95,1.68c2.84,1.12,5.34,2.73,7.56,4.84,2.2,2.12,3.89,4.52,5.06,7.22,1.16,2.7,1.74,5.55,1.74,8.52s-.57,5.82-1.72,8.5c-1.16,2.69-2.81,5.08-5,7.16-2.22,2.16-4.78,3.84-7.64,5.01-2.86,1.17-5.84,1.74-8.95,1.74M1121.3,1658.63c4.65,0,8.62-1.64,11.85-4.92,3.25-3.28,4.87-7.28,4.87-12.04s-1.6-8.86-4.84-12.1c-3.22-3.27-7.2-4.9-11.88-4.9s-8.64,1.63-11.85,4.9c-3.24,3.24-4.85,7.29-4.85,12.1s1.61,8.76,4.85,12.04c3.21,3.28,7.17,4.92,11.85,4.92Z" style="fill: #231f20;"/>
      <path d="M1151.66,1662.17v-41.31h5.62v6.38c1.71-2.64,3.84-4.62,6.34-5.94,2.51-1.32,5.39-1.98,8.66-1.98,4.82,0,8.58,1.3,11.26,3.92,2.69,2.6,4.04,6.24,4.04,10.9v28.03h-6v-25.47c0-4.14-.9-7.2-2.67-9.2-1.77-2-4.5-3-8.22-3-4.51,0-7.83,1.3-9.95,3.88-2.12,2.6-3.18,6.66-3.18,12.24v21.55h-5.9" style="fill: #231f20;"/>
      <path d="M1186.25,1748.16h-6.42v-78.59h6.42v41.84c1.58-3.26,3.78-5.72,6.62-7.4,2.83-1.66,6.22-2.5,10.15-2.5,6.33,0,11.51,2.28,15.5,6.82,4,4.56,6,10.42,6,17.63s-2.02,13.11-6.08,17.53c-4.06,4.44-9.4,6.64-16.05,6.64-3.72,0-6.96-.86-9.7-2.58-2.76-1.72-4.9-4.26-6.44-7.62v8.22M1217.36,1726.17c0-5.9-1.4-10.52-4.22-13.87-2.82-3.36-6.65-5.04-11.48-5.04s-8.64,1.58-11.4,4.74c-2.74,3.16-4.12,7.5-4.12,12.99,0,6.02,1.4,10.76,4.21,14.18,2.79,3.44,6.63,5.16,11.51,5.16s8.8-1.56,11.5-4.7c2.67-3.13,4-7.62,4-13.46Z" style="fill: #231f20;"/>
      <path d="M1266.53,1748.16v-8.22c-1.53,3.33-3.69,5.85-6.45,7.59-2.76,1.75-6.03,2.61-9.8,2.61-6.64,0-12-2.2-16.05-6.64-4.05-4.43-6.08-10.28-6.08-17.53s2-13.07,6-17.63c4.01-4.54,9.18-6.82,15.52-6.82,3.94,0,7.33.84,10.21,2.5,2.87,1.68,5.09,4.14,6.66,7.4v-8.22h6.42v44.96h-6.42M1235.31,1726.17c0,5.8,1.35,10.3,4.04,13.44,2.71,3.14,6.56,4.72,11.58,4.72s8.71-1.72,11.5-5.16c2.8-3.42,4.22-8.16,4.22-14.18,0-5.5-1.4-9.84-4.18-12.99-2.8-3.16-6.6-4.74-11.44-4.74s-8.67,1.68-11.49,5.04c-2.82,3.36-4.23,7.98-4.23,13.87Z" style="fill: #231f20;"/>
      <path d="M1284.82,1748.16v-44.96h6.12v6.94c1.87-2.88,4.17-5.02,6.91-6.46,2.74-1.44,5.88-2.16,9.44-2.16,5.24,0,9.33,1.42,12.25,4.26,2.92,2.84,4.39,6.8,4.39,11.86v30.53h-6.53v-27.73c0-4.5-.96-7.84-2.9-10.02-1.94-2.18-4.91-3.28-8.96-3.28-4.9,0-8.52,1.42-10.83,4.24-2.31,2.84-3.48,7.28-3.48,13.32v23.47h-6.42" style="fill: #231f20;"/>
      <polyline points="1335.18 1748.16 1335.18 1669.57 1341.61 1669.57 1341.61 1723.12 1364.69 1703.2 1373.56 1703.2 1348.76 1723.37 1375.38 1748.16 1366.5 1748.16 1341.61 1724.89 1341.61 1748.16 1335.18 1748.16" style="fill: #231f20;"/>
      <path d="M971.27,1745.54v-36.43h-9.01v-4.88h9.01v-11.92c0-8.3.9-13.67,2.72-16.13,1.8-2.46,5.12-3.72,9.94-3.72,1.2,0,2.33.09,3.42.27,1.1.17,2.1.41,3.04.72l-1.24,5.03c-.88-.38-1.72-.65-2.53-.84-.83-.18-1.57-.28-2.25-.28-2.37,0-4.02.8-5.01,2.4-.96,1.6-1.45,4.55-1.45,8.82v15.65h10.58v4.88h-10.58v36.43h-6.64" style="fill: #231f20;"/>
      <path d="M982.07,1749.7h-14.97v-36.41h-9v-13.23h9v-7.74c0-9.42,1.14-15.35,3.54-18.59,2.62-3.6,7.1-5.42,13.29-5.42,1.4,0,2.76.11,4.06.3,1.3.2,2.54.5,3.7.89l3.68,1.21-3.36,13.53-4.5-1.94c-.65-.26-1.26-.46-1.82-.6-.51-.1-.96-.16-1.32-.16-1.2,0-1.38.31-1.46.4-.07.14-.84,1.54-.84,6.64v11.48h10.58v13.23h-10.58v36.41" style="fill: #231f20;"/>
    </g>
    <g>
      <path d="M1380.6,754.82h-4.4v-2.81h12.14v2.81h-4.46v17.13h-3.29v-17.13Z" style="fill: #231f20;"/>
      <path d="M1404.25,754.97l-4.72,16.98h-2.39l-4.63-17.04v17.04h-2.75v-19.94h4.87l3.98,14.35,4.07-14.35h4.69v19.94h-3.11v-16.98Z" style="fill: #231f20;"/>
    </g>
    <g>
      <g>
        <path d="M244.02,1571.08l-14.12-32.86h-45.4l-14.25,32.86h-10.16l41.71-97.67h10.95l41.97,97.67h-10.69ZM207.33,1484.5l-19.14,44.87h37.88l-18.74-44.87Z" style="fill: #231f20;"/>
        <path d="M320.83,1473.42h9.77v61.9c0,24.68-14.39,37.48-33.26,37.48s-33.26-12.41-33.26-37.75v-61.64h9.77v62.16c0,19.67,10.56,28.38,23.49,28.38,11.22,0,23.49-7,23.49-28.24v-62.3Z" style="fill: #231f20;"/>
        <path d="M383.65,1535.05v-8.84h66.26c-2.11,26.26-24.42,46.59-51.6,46.59s-52.4-21.38-52.4-50.55,23.63-50.55,52.27-50.55c21.91,0,40.52,13.99,46.19,27.72h-11.35c-6.73-11.48-20.72-18.87-34.71-18.87-22.97,0-42.63,18.48-42.63,41.84s19.8,41.57,43.03,41.57c17.69,0,34.98-12.01,39.46-28.9h-54.51Z" style="fill: #231f20;"/>
        <path d="M526.84,1571.08v-88.82h-16.76v-8.84h26.53v97.67h-9.77Z" style="fill: #231f20;"/>
        <path d="M576.85,1538.35v-8.84h35.9v8.84h-35.9Z" style="fill: #231f20;"/>
        <path d="M685.07,1498.23c0-10.03-8.18-17.69-17.29-17.69-10.03,0-17.69,7.52-17.69,17.03,0,8.31,5.02,13.46,18.87,17.03,21.12,5.41,28.24,16.37,28.24,29.56,0,15.97-13.07,28.64-29.43,28.64-17.29,0-29.83-11.61-30.09-29.04h9.77c.66,12.54,8.58,20.19,20.33,20.19,11.09,0,19.67-8.71,19.67-19.4s-6.99-16.5-19.8-20.19c-13.99-3.96-27.32-8.58-27.32-26.4,0-15.44,12.41-26.26,27.45-26.26s27.06,11.48,27.06,26.53h-9.77Z" style="fill: #231f20;"/>
        <path d="M709.75,1571.08v-97.67h53.45v8.84h-43.69v35.11h42.23v8.84h-42.23v36.03h43.69v8.84h-53.45Z" style="fill: #231f20;"/>
        <path d="M781.15,1571.08v-97.67h29.56c26.92,0,34.98,15.97,34.98,29.43s-8.45,28.9-35.11,28.9h-19.67v39.33h-9.77ZM812.69,1522.91c13.59,0,23.23-8.18,23.23-20.33,0-9.77-6.2-20.33-25.34-20.33h-19.67v40.65h21.78Z" style="fill: #231f20;"/>
        <path d="M872.6,1571.08v-88.82h-22.44v-8.84h54.51v8.84h-22.3v88.82h-9.77Z" style="fill: #231f20;"/>
        <path d="M976.73,1571.08v-88.82h-16.76v-8.84h26.53v97.67h-9.77Z" style="fill: #231f20;"/>
        <path d="M1093.66,1571.08v-8.84l40.78-39.2c6.73-6.47,12.01-13.73,12.01-21.78,0-11.22-9.63-20.72-21.12-20.72-12.67,0-20.72,8.98-21.12,24.42h-9.77c0-23.36,15.84-33.26,31.41-33.26,18.48,0,30.36,15.18,30.36,29.83,0,13.2-8.45,21.64-17.95,30.75l-31.41,29.96h48.83v8.84h-62.03Z" style="fill: #231f20;"/>
        <path d="M1230.78,1536.5c0,24.28-14.78,36.29-32.73,36.29s-32.73-12.01-32.73-36.43v-30.49c0-21.64,15.31-34.18,32.73-34.18s32.73,12.14,32.73,34.32v30.49ZM1221.01,1508.39c0-21.64-13.33-27.85-23.23-27.85s-22.7,6.86-22.7,27.85v26.79c0,22.44,11.61,28.77,22.97,28.77s22.96-5.94,22.96-28.24v-27.32Z" style="fill: #231f20;"/>
        <path d="M1239.88,1571.08v-8.84l40.78-39.2c6.73-6.47,12.01-13.73,12.01-21.78,0-11.22-9.63-20.72-21.12-20.72-12.67,0-20.72,8.98-21.12,24.42h-9.77c0-23.36,15.84-33.26,31.41-33.26,18.48,0,30.36,15.18,30.36,29.83,0,13.2-8.45,21.64-17.95,30.75l-31.41,29.96h48.83v8.84h-62.03Z" style="fill: #231f20;"/>
        <path d="M1333.32,1482.26l-4.88,26.92c5.28-2.9,10.43-4.62,16.63-4.62,18.35,0,32.6,15.18,32.6,34.18s-14.39,34.05-33.13,34.05c-13.46,0-30.62-8.71-33.39-32.47h9.77c1.58,13.99,11.09,23.63,23.62,23.63,13.59,0,23.36-12.01,23.36-25.21,0-13.86-9.9-25.47-23.23-25.47-7.79,0-14.91,4.09-20.33,11.09l-7.65-2.77,8.84-48.17h43.95v8.84h-36.16Z" style="fill: #231f20;"/>
      </g>
      <circle cx="1044.46" cy="1532.73" r="10.74" style="fill: #231f20;"/>
    </g>
  </g>
  <g>
    <polyline points="427.65 129.29 524.92 326.37 742.46 357.99 585.02 511.43 622.19 728.07 427.65 625.77 233.07 728.07 270.22 511.43 112.84 357.99 330.38 326.37 427.65 129.29" style="fill: #231f20;"/>
    <path d="M508.38,668.23l1.66-270.92c-.04-8.9-5.54-16.09-12.31-16.08-.91,0-1.64.13-2.27.37-22.51,1.78-41.51,54.2-41.51,117.61,0,54.7,13.44,100.6,31.55,113.3l-.91,43.21s4.34,2.89,23.79,12.51" style="fill: #00aeef;"/>
    <path d="M409.11,500.96c-.58-9.79-1.23-19.58-1.9-29.35-.73-10.55-1.36-21.1-2.03-31.65-.51-8.48-1.07-16.96-1.6-25.43-.22-3.43-.44-6.88-.67-10.31-5.81-18.76-9.16.47-9.16.47l2.03,98.68s-.02.03-.05.05c-.13,1.76-1.57,3.14-3.37,3.14s-3.38-1.52-3.38-3.4v-.12c-.02-.09-.04-.17-.04-.17l-1.78-98.43c-5.01-23.31-8.89-.5-8.89-.5l-.76,98.94s-.01.02-.01.03c-.03,1.93-1.6,3.49-3.52,3.49s-3.34-1.41-3.52-3.2c-.03-.04-.03-.07-.03-.07l-1.8-99.19c.39-8.02-4.08-9.68-4.08-9.68-4.66,1.66-4.54,9.93-4.54,9.93l-3.81,99.19c0,.06-.02.11-.06.18h.02c0,1.01-.53,1.84-1.28,2.35-.41.36-.82.49-1.22.45-.1.02-.19.06-.28.06-1.54,0-2.78-1.28-2.78-2.85,0-.08.03-.14.04-.23l2.53-99.65c-3.25-17.9-8.56-.46-8.56-.46l-4.81,46.84-6.91,74.12c-.36,3.83-.86,8.69-.38,13.21.32,2.86,1.03,5.58,2.42,7.81,2.34,3.77,6.09,5.1,9.38,7.64,0,.01,8.88,6.85,8.88,6.85,8.12,6.35,6.85,13.7,6.85,13.7l-2.13,89.07,23.97-12.61.04-.93s.1-.06.1-.06v-3.11s.01-.01.01-.01l.33-72.61c1.62-10.98,11-15.79,11-15.79l5.77-3.74c10.13-5.33,10.8-15.01,10.8-15.01,0-4.4.33-9.05.34-13.54.06-8.06-.64-16.05-1.12-24.09" style="fill: #84bd41;"/>
  </g>
</svg>